<svg width="138" height="46" viewBox="0 0 138 46" fill="none" xmlns="http://www.w3.org/2000/svg">
<g clip-path="url(#clip0)">
<path d="M68 23.75H66.23C65.7862 22.488 65.4876 21.1796 65.34 19.85C65.15 18.85 64.59 18.46 63.27 18.46H60.1V23.75H58.58V12.18H63.47C65.9 12.18 67.47 13.1 67.47 15.18C67.4735 15.8214 67.2477 16.4429 66.8333 16.9325C66.4189 17.4221 65.8432 17.7475 65.21 17.85C65.6294 17.9154 66.0148 18.1193 66.3048 18.4292C66.5948 18.7391 66.7726 19.1372 66.81 19.56C67.26 22.18 67.56 23.18 68 23.75ZM65.9 15.23C65.9 13.84 64.97 13.29 63.4 13.29H60.1V17.35H63.35C64.94 17.35 65.87 16.68 65.87 15.23H65.9Z" fill="#171C32"/>
<path d="M77.09 21.69C76.7845 22.3926 76.2656 22.9812 75.6069 23.3724C74.9482 23.7637 74.1831 23.9378 73.42 23.87C70.85 23.87 69.21 22.14 69.21 19.39C69.21 16.64 70.81 14.89 73.21 14.89C75.61 14.89 77 16.66 77 19.42H70.8C70.8 21.58 71.8 22.87 73.59 22.87C74.1494 22.8828 74.6931 22.6839 75.1121 22.3131C75.5311 21.9422 75.7947 21.4268 75.85 20.87L77.09 21.69ZM70.83 18.69H75.36C75.24 16.69 74.6 15.87 73.23 15.87C71.86 15.87 71 16.9 70.83 18.66V18.69Z" fill="#171C32"/>
<path d="M86.38 18V23.78H84.9V18.11C84.9 16.84 84.28 15.92 82.9 15.92C82.5651 15.9236 82.2346 15.9973 81.9299 16.1363C81.6251 16.2753 81.3529 16.4765 81.1306 16.7271C80.9083 16.9776 80.7409 17.2719 80.6392 17.591C80.5375 17.9102 80.5037 18.247 80.54 18.58V23.75H79.08V12.18H80.56V16.8C80.7392 16.2108 81.1123 15.6994 81.6188 15.349C82.1253 14.9986 82.7354 14.8298 83.35 14.87C83.7652 14.8363 84.1826 14.895 84.5724 15.0418C84.9622 15.1887 85.3146 15.4201 85.6043 15.7193C85.894 16.0186 86.1138 16.3783 86.2479 16.7727C86.382 17.167 86.4272 17.5862 86.38 18Z" fill="#171C32"/>
<path d="M91.42 14.89V16.22H94.58L94.28 17.11H91.42V23.75H90V17.11H88L88.31 16.22H90V15.08C90 13.18 91.07 12.08 92.77 12.08C93.4456 12.0708 94.1093 12.2584 94.68 12.62V13.91C94.2272 13.4735 93.6286 13.2205 93 13.2C91.92 13.2 91.42 13.78 91.42 14.89Z" fill="#171C32"/>
<path d="M103.55 21.69C103.244 22.3926 102.726 22.9812 102.067 23.3724C101.408 23.7637 100.643 23.9378 99.88 23.87C97.31 23.87 95.67 22.14 95.67 19.39C95.67 16.64 97.28 14.89 99.67 14.89C102.06 14.89 103.41 16.66 103.43 19.42H97.26C97.26 21.58 98.26 22.87 100.05 22.87C100.61 22.8852 101.155 22.6871 101.575 22.3158C101.994 21.9445 102.257 21.4277 102.31 20.87L103.55 21.69ZM97.29 18.69H101.83C101.71 16.69 101.07 15.87 99.69 15.87C98.31 15.87 97.47 16.9 97.29 18.66V18.69Z" fill="#171C32"/>
<path d="M112.82 15.16V23.75H111.35V21.92C111.157 22.5202 110.768 23.0384 110.246 23.3919C109.724 23.7453 109.099 23.9137 108.47 23.87C106.47 23.87 105.47 22.95 105.47 20.87V15.16H106.95V20.66C106.95 21.99 107.55 22.89 108.95 22.89C109.291 22.8907 109.628 22.8194 109.94 22.6806C110.251 22.5418 110.53 22.3388 110.758 22.0848C110.985 21.8308 111.156 21.5316 111.26 21.2068C111.364 20.882 111.398 20.5389 111.36 20.2V15.2L112.82 15.16Z" fill="#171C32"/>
<path d="M120.92 22V23.29C120.317 23.6519 119.623 23.8324 118.92 23.81C117.22 23.81 116.34 22.93 116.34 21.45V16.06H114.34L114.65 15.16H116.31V12.94H117.77V15.16H120.84L120.53 16.06H117.8V21.16C117.8 22.16 118.23 22.68 119.22 22.68C119.847 22.6526 120.447 22.4128 120.92 22Z" fill="#171C32"/>
<path d="M130 21.69C129.694 22.3926 129.176 22.9812 128.517 23.3724C127.858 23.7637 127.093 23.9378 126.33 23.87C123.76 23.87 122.12 22.14 122.12 19.39C122.12 16.64 123.73 14.89 126.12 14.89C128.51 14.89 129.86 16.66 129.88 19.42H123.69C123.69 21.58 124.69 22.87 126.48 22.87C127.04 22.8852 127.585 22.6871 128.005 22.3158C128.424 21.9445 128.687 21.4277 128.74 20.87L130 21.69ZM123.74 18.69H128.28C128.16 16.69 127.52 15.87 126.14 15.87C124.76 15.87 123.89 16.9 123.71 18.66L123.74 18.69Z" fill="#171C32"/>
<path d="M138 17.71L136.65 18.47C136.65 16.53 136.27 15.89 135.45 15.89C134.24 15.89 133.45 17.28 133.45 19.97V23.75H132V15.15H133.48L133.43 17.42C133.77 15.72 134.65 14.89 135.79 14.89C137.2 14.89 138 15.89 138 17.71Z" fill="#171C32"/>
<path d="M64.49 33.93H64V28.35L61.92 33.93H61.2L59.1 28.37V33.93H58.57V28H59.44L61 32C61.15 32.38 61.38 33 61.54 33.53C61.7 33.01 61.94 32.38 62.08 32L63.62 28H64.49V33.93Z" fill="#171C32"/>
<path d="M70.49 32.06H67.55L66.8 33.93H66.3L68.71 27.93H69.4L71.73 33.93H71.21L70.49 32.06ZM70.33 31.65L69.46 29.4C69.31 29.04 69.18 28.68 69.04 28.33C68.91 28.68 68.76 29.05 68.62 29.4L67.71 31.65H70.33Z" fill="#171C32"/>
<path d="M77.42 32.3C77.42 33.3 76.62 33.99 75.33 33.99C74.04 33.99 73.24 33.28 73.18 32.23L73.66 31.95C73.6427 32.1719 73.6744 32.3949 73.7528 32.6033C73.8312 32.8116 73.9544 33.0002 74.1137 33.1556C74.273 33.3111 74.4645 33.4297 74.6747 33.503C74.8849 33.5764 75.1086 33.6026 75.33 33.58C76.33 33.58 76.89 33.16 76.89 32.39C76.89 31.62 76.4 31.39 75.28 31.06C74 30.7 73.43 30.38 73.43 29.36C73.43 28.34 74.22 27.89 75.5 27.89C75.7318 27.8591 75.9674 27.8741 76.1934 27.9343C76.4194 27.9944 76.6313 28.0985 76.817 28.2406C77.0028 28.3827 77.1587 28.56 77.2759 28.7623C77.393 28.9647 77.4692 29.1882 77.5 29.42L77.04 29.68C77.0315 29.4809 76.9824 29.2857 76.8956 29.1063C76.8088 28.9269 76.6863 28.7672 76.5354 28.637C76.3846 28.5068 76.2087 28.4088 76.0186 28.3492C75.8285 28.2895 75.6282 28.2693 75.43 28.29C74.49 28.29 73.96 28.68 73.96 29.29C73.96 29.9 74.39 30.18 75.4 30.49C76.76 30.91 77.42 31.21 77.42 32.3Z" fill="#171C32"/>
<path d="M83.55 32.3C83.55 33.3 82.76 33.99 81.46 33.99C80.16 33.99 79.37 33.28 79.31 32.23L79.79 31.95C79.7727 32.1719 79.8044 32.3949 79.8828 32.6033C79.9612 32.8116 80.0844 33.0002 80.2437 33.1556C80.403 33.3111 80.5945 33.4297 80.8047 33.503C81.0149 33.5764 81.2386 33.6026 81.46 33.58C82.46 33.58 83.02 33.16 83.02 32.39C83.02 31.62 82.53 31.39 81.41 31.06C80.13 30.7 79.57 30.38 79.57 29.36C79.57 28.34 80.35 27.89 81.63 27.89C81.862 27.8577 82.0981 27.8718 82.3246 27.9314C82.5511 27.991 82.7635 28.095 82.9496 28.2373C83.1356 28.3796 83.2915 28.5574 83.4083 28.7604C83.5251 28.9635 83.6005 29.1876 83.63 29.42L83.17 29.68C83.1615 29.4809 83.1124 29.2857 83.0256 29.1063C82.9388 28.9269 82.8163 28.7672 82.6654 28.637C82.5146 28.5068 82.3387 28.4088 82.1486 28.3492C81.9585 28.2895 81.7582 28.2693 81.56 28.29C80.63 28.29 80.09 28.68 80.09 29.29C80.09 29.9 80.52 30.18 81.53 30.49C82.89 30.91 83.55 31.21 83.55 32.3Z" fill="#171C32"/>
<path d="M89.25 32.06H86.31L85.57 33.93H85.06L87.47 27.93H88.16L90.49 33.93H90L89.25 32.06ZM89.09 31.65L88.22 29.4C88.07 29.04 87.94 28.68 87.8 28.33C87.67 28.68 87.53 29.05 87.38 29.4L86.47 31.65H89.09Z" fill="#171C32"/>
<path d="M96.88 33.93H96.35V32.67C96.242 33.0867 95.9874 33.4506 95.633 33.6948C95.2785 33.9391 94.8479 34.0474 94.42 34C92.76 34 91.81 32.8 91.81 30.94C91.81 29.08 92.81 27.94 94.5 27.94C95.86 27.94 96.72 28.64 96.79 29.6L96.33 29.87C96.3152 29.6476 96.2554 29.4304 96.1544 29.2317C96.0533 29.033 95.913 28.8569 95.742 28.7139C95.571 28.5709 95.3727 28.464 95.1593 28.3998C94.9458 28.3355 94.7215 28.3152 94.5 28.34C93.08 28.34 92.37 29.34 92.37 30.98C92.37 32.62 93.06 33.63 94.37 33.63C94.6237 33.6551 94.8797 33.6248 95.1206 33.5412C95.3614 33.4576 95.5811 33.3227 95.7647 33.1458C95.9482 32.969 96.0911 32.7543 96.1836 32.5168C96.276 32.2792 96.3157 32.0244 96.3 31.77V31.33H94.61V30.92H96.88V33.93Z" fill="#171C32"/>
<path d="M99.72 28.36V30.7H102.72V31.11H99.72V33.52H102.94V33.93H99.2V28H102.94V28.4L99.72 28.36Z" fill="#171C32"/>
<path d="M109.24 29.56C109.24 30.7 108.4 31.16 107.24 31.16H105.38V33.93H104.86V28H107.24C108.4 28 109.24 28.42 109.24 29.56ZM108.67 29.56C108.67 28.71 108.16 28.36 107.21 28.36H105.42V30.75H107.21C108.16 30.75 108.67 30.43 108.67 29.56Z" fill="#171C32"/>
<path d="M115.82 33.93H115.21C115.006 33.2752 114.849 32.6069 114.74 31.93C114.63 31.36 114.27 31.11 113.62 31.11H111.62V33.93H111.1V28H113.53C114.68 28 115.53 28.42 115.53 29.52C115.54 29.8526 115.431 30.1777 115.222 30.4365C115.012 30.6952 114.717 30.8703 114.39 30.93C114.61 30.9673 114.811 31.0771 114.962 31.2421C115.112 31.407 115.203 31.6174 115.22 31.84C115.321 32.5614 115.523 33.265 115.82 33.93ZM115 29.48C115 28.73 114.49 28.36 113.51 28.36H111.66V30.71H113.51C114.5 30.71 115 30.28 115 29.48Z" fill="#171C32"/>
<path d="M121.64 32.06H118.7L118 33.93H117.5L119.91 27.93H120.6L122.93 33.93H122.41L121.64 32.06ZM121.47 31.65L120.6 29.4C120.46 29.04 120.32 28.68 120.19 28.33C120.06 28.68 119.91 29.05 119.77 29.4L118.86 31.65H121.47Z" fill="#171C32"/>
<path d="M128.54 33.93L126.76 31.34L125 33.93H124.39L126.49 30.93L124.49 28H125.12L126.81 30.46L128.48 28H129.09L127.09 30.91L129.19 33.97L128.54 33.93Z" fill="#171C32"/>
<path d="M131 28H131.53V34H131V28Z" fill="#171C32"/>
<path d="M137.79 32.3C137.79 33.3 137 33.99 135.7 33.99C134.4 33.99 133.61 33.28 133.56 32.23L134 32C133.983 32.2219 134.014 32.4449 134.093 32.6533C134.171 32.8616 134.294 33.0502 134.454 33.2056C134.613 33.3611 134.805 33.4797 135.015 33.553C135.225 33.6264 135.449 33.6526 135.67 33.63C136.67 33.63 137.23 33.21 137.23 32.44C137.23 31.67 136.74 31.44 135.62 31.11C134.34 30.75 133.78 30.43 133.78 29.41C133.78 28.39 134.56 27.94 135.84 27.94C136.308 27.8802 136.78 28.0074 137.155 28.2939C137.529 28.5803 137.775 29.003 137.84 29.47L137.37 29.73C137.362 29.5309 137.312 29.3357 137.226 29.1563C137.139 28.9769 137.016 28.8172 136.865 28.687C136.715 28.5568 136.539 28.4588 136.349 28.3992C136.159 28.3395 135.958 28.3193 135.76 28.34C134.83 28.34 134.29 28.73 134.29 29.34C134.29 29.95 134.72 30.23 135.73 30.54C137.13 30.91 137.79 31.21 137.79 32.3Z" fill="#171C32"/>
<path d="M22.61 10.21C25.0649 10.208 27.4652 10.9342 29.5073 12.2966C31.5495 13.659 33.1417 15.5965 34.0825 17.864C35.0233 20.1314 35.2705 22.627 34.7928 25.0349C34.315 27.4429 33.1339 29.6551 31.3987 31.3916C29.6636 33.1282 27.4523 34.3112 25.0448 34.7908C22.6372 35.2705 20.1414 35.0253 17.8732 34.0863C15.605 33.1473 13.6662 31.5567 12.3022 29.5157C10.9381 27.4746 10.21 25.0749 10.21 22.62C10.2126 19.3312 11.5196 16.1777 13.8442 13.8513C16.1688 11.5248 19.3212 10.2153 22.61 10.21ZM22.61 9.11C19.9375 9.10802 17.3245 9.89869 15.1015 11.382C12.8785 12.8653 11.1453 14.9746 10.1213 17.443C9.09719 19.9115 8.82821 22.6282 9.34837 25.2495C9.86853 27.8709 11.1544 30.2791 13.0435 32.1695C14.9325 34.0599 17.3397 35.3476 19.9606 35.8697C22.5816 36.3918 25.2985 36.1248 27.7677 35.1026C30.2369 34.0803 32.3475 32.3487 33.8325 30.1268C35.3174 27.9049 36.11 25.2924 36.11 22.62C36.1113 20.8463 35.7631 19.0897 35.0852 17.4507C34.4074 15.8116 33.4132 14.3222 32.1595 13.0676C30.9058 11.8129 29.4171 10.8176 27.7785 10.1386C26.14 9.45952 24.3837 9.11 22.61 9.11Z" fill="#A58F5A"/>
<path d="M31.72 1.1C34.1725 1.1 36.5699 1.82725 38.6091 3.18978C40.6482 4.55231 42.2376 6.48892 43.1761 8.75473C44.1146 11.0205 44.3602 13.5138 43.8817 15.9191C43.4033 18.3245 42.2223 20.534 40.4881 22.2681C38.754 24.0023 36.5445 25.1833 34.1391 25.6617C31.7338 26.1402 29.2405 25.8946 26.9747 24.9561C24.7089 24.0176 22.7723 22.4282 21.4098 20.3891C20.0472 18.3499 19.32 15.9525 19.32 13.5C19.3253 10.2129 20.6334 7.06202 22.9577 4.73772C25.282 2.41341 28.4329 1.10529 31.72 1.1ZM31.72 0C29.05 0 26.4399 0.791761 24.2198 2.27516C21.9997 3.75856 20.2694 5.86697 19.2476 8.33377C18.2258 10.8006 17.9585 13.515 18.4794 16.1337C19.0003 18.7525 20.286 21.1579 22.1741 23.0459C24.0621 24.934 26.4675 26.2197 29.0863 26.7406C31.705 27.2615 34.4194 26.9942 36.8862 25.9724C39.353 24.9506 41.4614 23.2203 42.9448 21.0002C44.4282 18.7801 45.22 16.17 45.22 13.5C45.22 9.91958 43.7977 6.4858 41.2659 3.95406C38.7342 1.42232 35.3004 0 31.72 0Z" fill="#A58F5A"/>
<path d="M13.5 1.1C15.9525 1.1 18.3499 1.82725 20.3891 3.18978C22.4282 4.55231 24.0176 6.48893 24.9561 8.75473C25.8946 11.0205 26.1402 13.5138 25.6617 15.9191C25.1833 18.3245 24.0023 20.534 22.2681 22.2681C20.534 24.0023 18.3245 25.1833 15.9191 25.6617C13.5138 26.1402 11.0205 25.8946 8.75472 24.9561C6.48892 24.0176 4.5523 22.4282 3.18978 20.3891C1.82725 18.3499 1.1 15.9525 1.1 13.5C1.10265 10.2121 2.40992 7.05968 4.7348 4.7348C7.05968 2.40993 10.2121 1.10265 13.5 1.1ZM13.5 3.70954e-06C10.83 3.70954e-06 8.21986 0.791765 5.9998 2.27516C3.77974 3.75856 2.04941 5.86697 1.02762 8.33378C0.00584173 10.8006 -0.261503 13.515 0.259397 16.1337C0.780298 18.7525 2.06605 21.1579 3.95406 23.0459C5.84207 24.934 8.24753 26.2197 10.8663 26.7406C13.485 27.2615 16.1994 26.9942 18.6662 25.9724C21.133 24.9506 23.2414 23.2203 24.7248 21.0002C26.2082 18.7801 27 16.1701 27 13.5C27.0013 11.7268 26.653 9.97071 25.975 8.33222C25.2971 6.69373 24.3027 5.20498 23.0489 3.95113C21.795 2.69728 20.3063 1.70292 18.6678 1.02495C17.0293 0.346979 15.2732 -0.00131124 13.5 3.70954e-06Z" fill="#A58F5A"/>
<path d="M31.72 19.38C34.1753 19.378 36.576 20.1044 38.6184 21.4673C40.6607 22.8302 42.2529 24.7682 43.1934 27.0363C44.134 29.3043 44.3806 31.8004 43.902 34.2086C43.4235 36.6169 42.2414 38.829 40.5052 40.5652C38.769 42.3014 36.5569 43.4835 34.1486 43.962C31.7404 44.4406 29.2443 44.194 26.9763 43.2534C24.7082 42.3129 22.7702 40.7207 21.4073 38.6784C20.0444 36.636 19.318 34.2353 19.32 31.78C19.3253 28.4929 20.6334 25.342 22.9577 23.0177C25.282 20.6934 28.4329 19.3853 31.72 19.38ZM31.72 18.28C29.0471 18.278 26.4337 19.0689 24.2105 20.5527C21.9872 22.0364 20.2541 24.1463 19.2303 26.6153C18.2065 29.0844 17.9381 31.8016 18.4591 34.4232C18.9801 37.0448 20.267 39.453 22.157 41.343C24.047 43.233 26.4552 44.5199 29.0768 45.0409C31.6984 45.5619 34.4156 45.2935 36.8847 44.2697C39.3537 43.2459 41.4636 41.5128 42.9473 39.2895C44.4311 37.0663 45.222 34.4529 45.22 31.78C45.2174 28.2004 43.7942 24.7682 41.263 22.237C38.7318 19.7058 35.2996 18.2827 31.72 18.28Z" fill="#A58F5A"/>
<path d="M13.5 19.38C15.9553 19.378 18.356 20.1044 20.3984 21.4673C22.4407 22.8302 24.0329 24.7682 24.9734 27.0363C25.9139 29.3043 26.1605 31.8004 25.682 34.2086C25.2035 36.6169 24.0214 38.829 22.2852 40.5652C20.549 42.3014 18.3368 43.4835 15.9286 43.962C13.5204 44.4406 11.0243 44.194 8.75628 43.2534C6.48824 42.3129 4.55016 40.7207 3.18729 38.6784C1.82443 36.636 1.09802 34.2353 1.1 31.78C1.10265 28.4921 2.40992 25.3397 4.7348 23.0148C7.05968 20.6899 10.2121 19.3826 13.5 19.38ZM13.5 18.28C10.8271 18.278 8.21372 19.0689 5.99048 20.5527C3.76724 22.0364 2.03408 24.1463 1.0103 26.6153C-0.0134764 29.0844 -0.281862 31.8016 0.239105 34.4232C0.760073 37.0448 2.04698 39.453 3.93699 41.343C5.827 43.233 8.23517 44.5199 10.8568 45.0409C13.4784 45.5619 16.1956 45.2935 18.6647 44.2697C21.1337 43.2459 23.2436 41.5128 24.7273 39.2895C26.2111 37.0663 27.002 34.4529 27 31.78C27 28.1996 25.5777 24.7658 23.0459 22.2341C20.5142 19.7023 17.0804 18.28 13.5 18.28Z" fill="#A58F5A"/>
</g>
<defs>
<clipPath id="clip0">
<rect width="137.96" height="45.29" fill="white"/>
</clipPath>
</defs>
</svg>
