<svg width="45" height="45" viewBox="0 0 45 45" fill="none" xmlns="http://www.w3.org/2000/svg">
<g clip-path="url(#clip0)">
<path d="M22.5099 10.1424C24.9518 10.1404 27.3394 10.8617 29.3707 12.2152C31.402 13.5686 32.9857 15.4932 33.9215 17.7456C34.8574 19.9981 35.1032 22.4771 34.6281 24.8691C34.1529 27.2611 32.978 29.4587 31.252 31.1837C29.5261 32.9088 27.3266 34.0839 24.9318 34.5604C22.537 35.0369 20.0544 34.7933 17.7983 33.8605C15.5421 32.9278 13.6136 31.3477 12.2568 29.3202C10.8999 27.2927 10.1757 24.9088 10.1757 22.4702C10.1783 19.2032 11.4784 16.0706 13.7906 13.7595C16.1029 11.4485 19.2386 10.1476 22.5099 10.1424ZM22.5099 9.04966C19.8517 9.04769 17.2525 9.83312 15.0413 11.3066C12.8301 12.7801 11.1061 14.8754 10.0874 17.3275C9.0688 19.7796 8.80126 22.4783 9.31865 25.0823C9.83605 27.6863 11.1151 30.0785 12.9941 31.9564C14.8731 33.8343 17.2676 35.1135 19.8746 35.6321C22.4817 36.1508 25.1842 35.8856 27.6403 34.8701C30.0964 33.8546 32.1958 32.1345 33.6728 29.9273C35.1499 27.7201 35.9383 25.1249 35.9383 22.4702C35.9396 20.7082 35.5932 18.9633 34.919 17.3351C34.2447 15.7069 33.2558 14.2274 32.0087 12.981C30.7617 11.7347 29.2809 10.746 27.651 10.0714C26.0212 9.39686 24.2742 9.04966 22.5099 9.04966Z" fill="#A58F5A"/>
<path d="M31.5716 1.09272C34.011 1.09272 36.3957 1.81515 38.4241 3.16865C40.4524 4.52216 42.0334 6.44595 42.9669 8.69675C43.9004 10.9475 44.1447 13.4243 43.6688 15.8137C43.1929 18.2031 42.0181 20.398 40.2932 22.1206C38.5682 23.8433 36.3705 25.0165 33.9779 25.4918C31.5853 25.9671 29.1053 25.7231 26.8515 24.7908C24.5977 23.8585 22.6713 22.2797 21.316 20.254C19.9607 18.2284 19.2374 15.8468 19.2374 13.4106C19.2426 10.1453 20.5438 7.01525 22.8558 4.70634C25.1677 2.39743 28.302 1.09797 31.5716 1.09272ZM31.5716 0C28.9157 0 26.3195 0.786518 24.1112 2.26009C21.9029 3.73367 20.1817 5.82812 19.1654 8.27858C18.149 10.729 17.8831 13.4255 18.4012 16.0269C18.9194 18.6283 20.1983 21.0178 22.0763 22.8933C23.9543 24.7688 26.347 26.0461 28.9518 26.5635C31.5567 27.081 34.2567 26.8154 36.7104 25.8004C39.1641 24.7854 41.2613 23.0665 42.7369 20.8611C44.2124 18.6558 45 16.063 45 13.4106C45 11.6495 44.6526 9.90563 43.9778 8.27858C43.3029 6.65153 42.3138 5.17316 41.0669 3.92787C39.8199 2.68258 38.3396 1.69477 36.7104 1.02082C35.0812 0.346875 33.335 0 31.5716 0V0Z" fill="#A58F5A"/>
<path d="M13.4284 1.03272C15.8679 1.03272 18.2526 1.75515 20.2809 3.10865C22.3093 4.46216 23.8902 6.38595 24.8237 8.63675C25.7573 10.8875 26.0015 13.3643 25.5256 15.7537C25.0497 18.1431 23.875 20.338 22.15 22.0607C20.425 23.7833 18.2273 24.9565 15.8347 25.4318C13.4421 25.9071 10.9621 25.6631 8.70829 24.7308C6.4545 23.7985 4.52816 22.2197 3.17286 20.194C1.81756 18.1684 1.09417 15.7868 1.09417 13.3506C1.09943 10.0853 2.40061 6.95526 4.71259 4.64634C7.02456 2.33743 10.1588 1.03797 13.4284 1.03272ZM13.4284 -0.0599976C10.7725 -0.0599976 8.17626 0.72652 5.96798 2.2001C3.75969 3.67367 2.03854 5.76812 1.02218 8.21858C0.00581762 10.6691 -0.260108 13.3655 0.258029 15.9669C0.776166 18.5683 2.05509 20.9578 3.93309 22.8333C5.81108 24.7088 8.20379 25.9861 10.8086 26.5035C13.4135 27.021 16.1135 26.7554 18.5672 25.7404C21.0209 24.7254 23.1181 23.0065 24.5937 20.8011C26.0692 18.5958 26.8568 16.003 26.8568 13.3506C26.8568 9.79389 25.442 6.38285 22.9237 3.86787C20.4054 1.3529 16.9898 -0.0599976 13.4284 -0.0599976Z" fill="#A58F5A"/>
<path d="M31.5716 19.2517C34.0139 19.2497 36.4018 19.9713 38.4334 21.3251C40.4649 22.679 42.0486 24.6042 42.9841 26.8572C43.9197 29.1102 44.165 31.5898 43.689 33.9821C43.213 36.3744 42.0371 38.5719 40.3102 40.2965C38.5832 42.0212 36.3828 43.1955 33.9873 43.6709C31.5918 44.1462 29.109 43.9013 26.853 42.967C24.597 42.0327 22.6692 40.4511 21.3136 38.4222C19.9579 36.3934 19.2354 34.0086 19.2374 31.5695C19.2426 28.3042 20.5438 25.1742 22.8558 22.8653C25.1677 20.5564 28.3019 19.2569 31.5716 19.2517ZM31.5716 18.1589C28.9129 18.157 26.3133 18.9427 24.1019 20.4166C21.8904 21.8905 20.1665 23.9864 19.1481 26.4391C18.1298 28.8917 17.8628 31.591 18.381 34.1952C18.8992 36.7995 20.1793 39.1917 22.0593 41.0692C23.9393 42.9467 26.3347 44.2251 28.9424 44.7426C31.5501 45.2601 34.2529 44.9935 36.7088 43.9765C39.1648 42.9595 41.2635 41.2378 42.7393 39.0293C44.2152 36.8208 45.0019 34.2247 44.9999 31.5695C44.9973 28.0136 43.5817 24.6041 41.064 22.0897C38.5462 19.5753 35.1322 18.1616 31.5716 18.1589Z" fill="#A58F5A"/>
<path d="M13.4483 19.2517C15.8906 19.2497 18.2786 19.9713 20.3101 21.3251C22.3416 22.679 23.9253 24.6042 24.8608 26.8572C25.7964 29.1102 26.0417 31.5898 25.5657 33.9821C25.0897 36.3744 23.9138 38.5719 22.1869 40.2965C20.4599 42.0212 18.2595 43.1955 15.864 43.6709C13.4685 44.1462 10.9857 43.9013 8.72972 42.967C6.47371 42.0327 4.54592 40.4511 3.19028 38.4222C1.83464 36.3934 1.11209 34.0086 1.11406 31.5695C1.11932 28.3042 2.42051 25.1742 4.73248 22.8653C7.04445 20.5564 10.1787 19.2569 13.4483 19.2517ZM13.4483 18.1589C10.7896 18.157 8.19004 18.9427 5.9786 20.4166C3.76715 21.8905 2.04319 23.9864 1.02484 26.4391C0.00649386 28.8917 -0.260469 31.591 0.257735 34.1952C0.775938 36.7995 2.05602 39.1917 3.936 41.0692C5.81598 42.9467 8.21138 44.2251 10.8191 44.7426C13.4268 45.2601 16.1296 44.9935 18.5856 43.9765C21.0415 42.9595 23.1402 41.2378 24.616 39.0293C26.0919 36.8208 26.8786 34.2247 26.8767 31.5695C26.874 28.0136 25.4584 24.6041 22.9407 22.0897C20.4229 19.5753 17.0089 18.1616 13.4483 18.1589Z" fill="#A58F5A"/>
</g>
<defs>
<clipPath id="clip0">
<rect width="45" height="45" fill="white"/>
</clipPath>
</defs>
</svg>
