<svg width="120" height="34" viewBox="0 0 120 34" fill="none" xmlns="http://www.w3.org/2000/svg">
<path d="M14.2097 17.6415H11.5794C10.9025 15.7347 10.446 13.7566 10.2189 11.746C9.9317 10.2343 9.10028 9.64476 7.08975 9.64476H2.29774V17.6415H0V0.211914H7.4072C11.0806 0.211914 13.4539 1.60265 13.4539 4.74694C13.4597 5.71432 13.1205 6.65209 12.4971 7.39185C11.8737 8.13161 11.007 8.62489 10.0526 8.7831C10.6866 8.88192 11.2692 9.19015 11.7076 9.65866C12.1459 10.1272 12.4148 10.729 12.4713 11.3681C13.1364 15.3287 13.6051 16.8403 14.2097 17.6415ZM11.0201 4.74694C11.0201 2.63059 9.62936 1.72359 7.25604 1.72359H2.29774V7.8761H7.2258C9.62936 7.98192 11.0201 6.95398 11.0201 4.74694Z" fill="#171C32"/>
<path d="M27.9811 14.5426C27.5187 15.6032 26.7337 16.4911 25.7377 17.08C24.7417 17.6689 23.5855 17.9288 22.4333 17.8229C18.5483 17.8229 16.0842 15.2228 16.0842 11.0506C16.0842 6.87836 18.5029 4.24805 22.1309 4.24805C25.7589 4.24805 27.7846 6.93882 27.8148 11.0959H18.4727C18.4727 14.3611 19.9843 16.3112 22.6902 16.3112C23.5378 16.3378 24.3635 16.0396 24.9986 15.4777C25.6336 14.9157 26.03 14.1324 26.1066 13.2879L27.9811 14.5426ZM18.5331 10.0075H25.381C25.1996 6.98418 24.2322 5.74461 22.146 5.74461C20.0599 5.74461 18.7901 7.30163 18.5331 9.94706V10.0075Z" fill="#171C32"/>
<path d="M42.0397 8.91916V17.6415H39.8024V9.11567C39.8024 7.19585 38.8651 5.80511 36.779 5.80511C36.2773 5.81904 35.7839 5.93649 35.3297 6.15008C34.8756 6.36368 34.4704 6.66882 34.1397 7.04636C33.809 7.4239 33.5599 7.86571 33.4079 8.34406C33.256 8.82241 33.2046 9.32699 33.2568 9.82616V17.6415H30.9893V0.211914H33.2568V7.19585C33.533 6.30534 34.1005 5.53351 34.8681 5.00438C35.6358 4.47525 36.559 4.21953 37.4895 4.27832C38.1063 4.23408 38.7252 4.32454 39.3035 4.54342C39.8818 4.76229 40.4056 5.10435 40.8384 5.54587C41.2713 5.98738 41.603 6.51778 41.8104 7.10027C42.0178 7.68277 42.0961 8.30342 42.0397 8.91916Z" fill="#171C32"/>
<path d="M49.6585 4.24804V6.25857H54.4203L53.9819 7.60396H49.6585V17.6415H47.4363V7.60396H44.3374L44.806 6.25857H47.4363V4.53526C47.4363 1.66308 49.0538 0.000238513 51.6388 0.000238513C52.6595 -0.0094106 53.6615 0.273893 54.5261 0.816544V2.7666C53.8409 2.12123 52.9425 1.75004 52.0016 1.72355C50.4143 1.72355 49.6585 2.5852 49.6585 4.24804Z" fill="#171C32"/>
<path d="M68.0253 14.5426C67.5584 15.603 66.7702 16.49 65.7721 17.0786C64.774 17.6671 63.6164 17.9275 62.4624 17.8229C58.5925 17.8229 56.1133 15.2228 56.1133 11.0506C56.1133 6.87836 58.532 4.24805 62.16 4.24805C65.7881 4.24805 67.8137 6.93883 67.8288 11.0959H58.4867C58.4867 14.3611 60.0739 16.3112 62.7042 16.3112C63.5492 16.3339 64.3712 16.034 65.003 15.4724C65.6347 14.9108 66.029 14.1297 66.1055 13.2879L68.0253 14.5426ZM58.5623 10.0075H65.4101C65.2287 6.98419 64.2613 5.74461 62.1903 5.74461C60.1193 5.74461 58.789 7.30164 58.532 9.94707L58.5623 10.0075Z" fill="#171C32"/>
<path d="M81.9932 4.74707V17.7172H79.7862V14.8753C79.5059 15.7952 78.9239 16.5939 78.134 17.1424C77.3441 17.691 76.3924 17.9574 75.4325 17.8986C72.4092 17.8986 70.8975 16.523 70.8975 13.3636V4.74707H73.1348V13.0462C73.1348 15.0567 74.0418 16.4172 76.1581 16.4172C76.6767 16.4169 77.1892 16.3064 77.6618 16.093C78.1344 15.8796 78.5562 15.5681 78.8992 15.1793C79.2423 14.7905 79.4988 14.3332 79.6517 13.8377C79.8046 13.3423 79.8504 12.82 79.7862 12.3054V4.74707H81.9932Z" fill="#171C32"/>
<path d="M94.2529 15.0565V17.0066C93.3399 17.5497 92.2914 17.8223 91.2295 17.7927C88.6446 17.7927 87.3143 16.4624 87.3143 14.2251V6.01671H84.291L84.7596 4.67133H87.2538V1.30029H89.476V4.74691H94.1017L93.6331 6.0923H89.5365V13.8018C89.5365 15.3135 90.1865 16.0996 91.6679 16.0996C92.6226 16.0537 93.5337 15.6861 94.2529 15.0565Z" fill="#171C32"/>
<path d="M107.934 14.5426C107.471 15.6032 106.686 16.4911 105.69 17.08C104.694 17.6689 103.538 17.9288 102.386 17.8229C98.5007 17.8229 96.0215 15.2228 96.0215 11.0506C96.0215 6.87836 98.4402 4.24805 102.068 4.24805C105.696 4.24805 107.707 6.93882 107.737 11.0959H98.4251C98.4251 14.3611 99.9368 16.3112 102.643 16.3112C103.489 16.3342 104.313 16.0347 104.947 15.4735C105.582 14.9122 105.979 14.131 106.059 13.2879L107.934 14.5426ZM98.4705 10.0075H105.318C105.137 6.98418 104.169 5.74461 102.098 5.74461C100.027 5.74461 98.7274 7.30163 98.4705 9.94706V10.0075Z" fill="#171C32"/>
<path d="M119.997 8.52609L117.911 9.67496C117.911 6.65161 117.336 5.75972 116.081 5.75972C114.267 5.75972 113.058 7.86095 113.058 11.9274V17.6415H110.942V4.64109H113.179L113.103 8.07258C113.617 5.50273 114.948 4.24805 116.671 4.24805C118.848 4.24805 120.072 5.75972 119.997 8.52609Z" fill="#171C32"/>
<path d="M8.93399 33.0305H8.14792V24.5953L5.01876 33.0305H3.93035L0.786071 24.6407V33.0305H0V23.9604H1.30004L3.65825 30.1281C3.86989 30.7025 4.23269 31.6398 4.47456 32.4409C4.71642 31.6549 5.06411 30.7025 5.29086 30.1281L7.55837 24.0058H8.87353L8.93399 33.0305Z" fill="#171C32"/>
<path d="M18.004 30.2037H13.605L12.4713 33.0305H11.7155L15.3435 23.9604H16.4016L19.9087 33.0305H19.1227L18.004 30.2037ZM17.7622 29.5839L16.447 26.1826C16.2354 25.6384 16.0237 25.0942 15.8272 24.5651L15.1923 26.1826L13.8167 29.5839H17.7622Z" fill="#171C32"/>
<path d="M28.48 30.5663C28.48 32.0779 27.2857 33.121 25.3357 33.121C23.3856 33.121 22.1612 32.0477 22.0856 30.4604L22.7961 30.0372C22.7727 30.374 22.8228 30.7119 22.943 31.0274C23.0632 31.3429 23.2507 31.6285 23.4923 31.8643C23.7339 32.1002 24.0239 32.2807 24.3422 32.3932C24.6605 32.5058 24.9995 32.5478 25.3357 32.5163C26.8473 32.5163 27.6788 31.8663 27.6788 30.7023C27.6788 29.5383 26.9532 29.1906 25.245 28.6918C23.5368 28.1929 22.4635 27.6638 22.4635 26.1219C22.4635 24.58 23.6426 23.8998 25.5927 23.8998C26.2996 23.8094 27.0137 24.0016 27.5798 24.4347C28.1459 24.8677 28.5182 25.5066 28.616 26.2126L27.9055 26.6057C27.8949 26.304 27.8221 26.0078 27.6916 25.7355C27.5611 25.4633 27.3759 25.221 27.1474 25.0237C26.9189 24.8264 26.6521 24.6785 26.3638 24.5891C26.0754 24.4998 25.7717 24.4709 25.4717 24.5044C24.0659 24.5044 23.2496 25.094 23.2496 26.0161C23.2496 26.9382 23.8996 27.3615 25.4415 27.8452C27.4974 28.465 28.48 28.9337 28.48 30.5663Z" fill="#171C32"/>
<path d="M37.7918 30.5663C37.7918 32.0779 36.5976 33.121 34.6476 33.121C32.6975 33.121 31.473 32.0477 31.3975 30.4604L32.1231 30.0372C32.0973 30.3732 32.1453 30.7109 32.2638 31.0264C32.3822 31.342 32.5681 31.6278 32.8086 31.864C33.0491 32.1001 33.3383 32.2809 33.6559 32.3936C33.9736 32.5062 34.312 32.5481 34.6476 32.5163C36.1592 32.5163 36.9907 31.8663 36.9907 30.7023C36.9907 29.5383 36.2651 29.1906 34.5569 28.6918C32.8487 28.1929 31.7451 27.6638 31.7451 26.1219C31.7451 24.58 32.9243 23.8998 34.8743 23.8998C35.5813 23.8094 36.2954 24.0016 36.8614 24.4347C37.4275 24.8677 37.7999 25.5066 37.8977 26.2126L37.1872 26.6057C37.1764 26.3054 37.104 26.0106 36.9744 25.7395C36.8449 25.4684 36.661 25.2268 36.4342 25.0298C36.2074 24.8327 35.9425 24.6844 35.6559 24.594C35.3694 24.5037 35.0673 24.4732 34.7685 24.5044C33.3626 24.5044 32.5463 25.094 32.5463 26.0161C32.5463 26.9382 33.2568 27.422 34.7685 27.8452C36.7639 28.465 37.7918 28.9337 37.7918 30.5663Z" fill="#171C32"/>
<path d="M46.3782 30.2037H41.9339L40.8152 33.0305H40.0594L43.7025 23.9604H44.7456L48.2678 33.0305H47.4666L46.3782 30.2037ZM46.1212 29.5839L44.806 26.1826C44.5944 25.6384 44.3828 25.0942 44.1863 24.5651C43.9897 25.0942 43.763 25.6535 43.5514 26.1826L42.1757 29.5839H46.1212Z" fill="#171C32"/>
<path d="M57.8971 33.0301H57.111V31.1254C56.9419 31.7509 56.5552 32.2956 56.0204 32.6614C55.4856 33.0271 54.8377 33.1901 54.1935 33.1208C51.6841 33.1208 50.2329 31.3219 50.2329 28.5858C50.2329 25.8497 51.7446 24.0508 54.3144 24.0508C56.3703 24.0508 57.6704 25.109 57.7762 26.5602L57.0657 26.9683C57.0431 26.6335 56.9533 26.3067 56.8014 26.0074C56.6496 25.7081 56.439 25.4426 56.1821 25.2266C55.9252 25.0107 55.6274 24.8488 55.3065 24.7506C54.9856 24.6525 54.6482 24.6201 54.3144 24.6555C52.1679 24.6555 51.0946 26.1671 51.0946 28.6614C51.0946 31.1557 52.1376 32.6673 54.1935 32.6673C54.5777 32.7029 54.9651 32.655 55.3291 32.5268C55.6931 32.3986 56.025 32.1932 56.3022 31.9247C56.5793 31.6562 56.7951 31.3309 56.9347 30.9711C57.0743 30.6114 57.1345 30.2257 57.111 29.8405V29.1754H54.4202V28.5556H57.8971V33.0301Z" fill="#171C32"/>
<path d="M62.2054 24.6256V28.1478H66.7404V28.7676H62.2054V32.4107H67.073V33.0305H61.4193V23.9604H67.073V24.5802L62.2054 24.6256Z" fill="#171C32"/>
<path d="M76.5814 26.4245C76.5814 28.1478 75.3267 28.8432 73.5581 28.8432H70.8219V33.0305H70.0208V23.9604H73.6185C75.3267 24.0058 76.5814 24.7012 76.5814 26.4245ZM75.7349 26.4245C75.7349 25.1396 74.9488 24.6256 73.5127 24.6256H70.8219V28.2385H73.5127C74.9488 28.2385 75.7349 27.7396 75.7349 26.4245Z" fill="#171C32"/>
<path d="M86.5433 33.0305H85.6212C85.3042 32.0423 85.0616 31.0316 84.8956 30.0071C84.7444 29.1455 84.2002 28.7827 83.2025 28.7827H80.2699V33.0305H79.4838V23.9604H83.1421C84.8805 23.9604 86.1654 24.5954 86.1654 26.2582C86.1808 26.7609 86.0154 27.2525 85.6992 27.6436C85.3829 28.0347 84.9369 28.2994 84.4421 28.3897C84.7748 28.446 85.079 28.6121 85.3064 28.8614C85.5337 29.1107 85.6712 29.4289 85.6968 29.7653C85.81 30.8906 86.0955 31.9919 86.5433 33.0305ZM85.3038 26.3035C85.3038 25.1698 84.5479 24.6256 83.0665 24.6256H80.2699V28.1629H83.0514C84.5328 28.1629 85.3038 27.5129 85.3038 26.3035Z" fill="#171C32"/>
<path d="M95.3262 30.2037H90.8818L89.7632 33.0305H88.9922L92.6354 23.9604H93.7238L97.246 33.0305H96.4599L95.3262 30.2037ZM95.0843 29.5839L93.7238 26.1826C93.5122 25.6384 93.3005 25.0942 93.104 24.5651C92.8924 25.0942 92.6807 25.6535 92.454 26.1826L91.0935 29.5839H95.0843Z" fill="#171C32"/>
<path d="M105.817 33.0306L103.126 29.1153L100.421 33.0306H99.4984L102.673 28.4955L99.6496 24.0663H100.617L103.096 27.7246L105.681 24.0059H106.603L103.58 28.4048L106.77 33.0306H105.817Z" fill="#171C32"/>
<path d="M109.43 24.0059H110.216V33.0759H109.43V24.0059Z" fill="#171C32"/>
<path d="M119.74 30.5661C119.74 32.0778 118.545 33.1208 116.595 33.1208C114.645 33.1208 113.376 32.0475 113.376 30.4452L114.101 30.0219C114.075 30.3579 114.123 30.6956 114.242 31.0111C114.36 31.3267 114.546 31.6125 114.787 31.8487C115.027 32.0849 115.316 32.2656 115.634 32.3783C115.952 32.491 116.29 32.5329 116.626 32.501C118.137 32.501 118.969 31.851 118.969 30.687C118.969 29.523 118.243 29.1754 116.535 28.6765C114.827 28.1776 113.753 27.6486 113.753 26.1066C113.753 24.5647 114.933 23.8845 116.883 23.8845C117.233 23.8377 117.589 23.8605 117.931 23.9514C118.272 24.0423 118.593 24.1997 118.874 24.4145C119.154 24.6293 119.39 24.8973 119.567 25.2032C119.744 25.5091 119.859 25.8469 119.906 26.1974L119.195 26.5904C119.185 26.2901 119.112 25.9953 118.983 25.7242C118.853 25.4531 118.669 25.2115 118.443 25.0145C118.216 24.8174 117.951 24.6691 117.664 24.5787C117.378 24.4884 117.076 24.4579 116.777 24.4892C115.356 24.4892 114.54 25.0787 114.54 26.0008C114.54 26.923 115.19 27.3462 116.731 27.83C118.757 28.4649 119.74 28.9335 119.74 30.5661Z" fill="#171C32"/>
</svg>
